STARTFONT 2.1
FONT -Adobe-Utopia-Bold-R-Normal--12-120-75-75-P-70-ISO8859-2
SIZE 12 75 75
FONTBOUNDINGBOX 17 13 -2 -3
STARTPROPERTIES 29
FOUNDRY "Adobe"
FAMILY_NAME "Utopia"
WEIGHT_NAME "Bold"
SLANT "R"
SETWIDTH_NAME "Normal"
ADD_STYLE_NAME ""
PIXEL_SIZE 12
POINT_SIZE 120
RESOLUTION_X 75
RESOLUTION_Y 75
SPACING "P"
AVERAGE_WIDTH 70
CHARSET_REGISTRY "ISO8859"
CHARSET_ENCODING "2"
CAP_HEIGHT 9
X_HEIGHT 6
RELATIVE_SETWIDTH 50
RELATIVE_WEIGHT 70
WEIGHT 218
FACE_NAME "Utopia Bold"
COPYRIGHT "Copyright (c) 1989, 1991 Adobe Systems Incorporated.  All rights reserved., Copyright 1996 Cub Soft"
NOTICE "Utopia is a registered trademark of Adobe Systems Incorporated."
DESTINATION 0
FONT_ASCENT 10
FONT_DESCENT 3
DEFAULT_CHAR 32
_ADOBE_PSFONT "Utopia-Bold"
_ADOBE_XFONT "-Adobe-Utopia-Bold-R-Normal--12-120-75-75-P-70-ISO8859-2"
_DEC_DEVICE_FONTNAMES "PS=Utopia-Bold"
ENDPROPERTIES
CHARS 191
STARTCHAR space
ENCODING 32
SWIDTH 210 0
DWIDTH 3 0
BBX 0 0 0 0
BITMAP
ENDCHAR
STARTCHAR exclam
ENCODING 33
SWIDTH 278 0
DWIDTH 3 0
BBX 2 9 0 0
BITMAP
c0
c0
c0
c0
c0
c0
00
c0
c0
ENDCHAR
STARTCHAR quotedbl
ENCODING 34
SWIDTH 473 0
DWIDTH 6 0
BBX 3 4 1 5
BITMAP
a0
a0
a0
a0
ENDCHAR
STARTCHAR numbersign
ENCODING 35
SWIDTH 560 0
DWIDTH 7 0
BBX 7 8 0 1
BITMAP
14
14
7e
28
28
fc
50
50
ENDCHAR
STARTCHAR dollar
ENCODING 36
SWIDTH 560 0
DWIDTH 7 0
BBX 6 11 0 -1
BITMAP
10
78
dc
d4
f0
78
3c
ac
ec
78
20
ENDCHAR
STARTCHAR percent
ENCODING 37
SWIDTH 887 0
DWIDTH 11 0
BBX 10 9 0 0
BITMAP
6100
9e00
9200
9400
6980
0a40
1240
2240
2180
ENDCHAR
STARTCHAR ampersand
ENCODING 38
SWIDTH 748 0
DWIDTH 9 0
BBX 8 9 0 0
BITMAP
18
34
34
18
39
6d
c6
e6
7b
ENDCHAR
STARTCHAR apostrophe
ENCODING 39
SWIDTH 252 0
DWIDTH 3 0
BBX 2 4 0 5
BITMAP
c0
c0
40
80
ENDCHAR
STARTCHAR parenleft
ENCODING 40
SWIDTH 365 0
DWIDTH 5 0
BBX 4 11 0 -2
BITMAP
30
60
60
c0
c0
c0
c0
c0
60
60
30
ENDCHAR
STARTCHAR parenright
ENCODING 41
SWIDTH 365 0
DWIDTH 5 0
BBX 4 11 0 -2
BITMAP
c0
60
60
30
30
30
30
30
60
60
c0
ENDCHAR
STARTCHAR asterisk
ENCODING 42
SWIDTH 442 0
DWIDTH 6 0
BBX 5 5 0 4
BITMAP
20
a8
70
a8
20
ENDCHAR
STARTCHAR plus
ENCODING 43
SWIDTH 600 0
DWIDTH 7 0
BBX 6 5 0 1
BITMAP
30
30
fc
30
30
ENDCHAR
STARTCHAR comma
ENCODING 44
SWIDTH 280 0
DWIDTH 3 0
BBX 2 4 0 -2
BITMAP
c0
c0
40
80
ENDCHAR
STARTCHAR minus
ENCODING 45
SWIDTH 600 0
DWIDTH 7 0
BBX 6 1 0 3
BITMAP
fc
ENDCHAR
STARTCHAR period
ENCODING 46
SWIDTH 280 0
DWIDTH 3 0
BBX 2 2 0 0
BITMAP
c0
c0
ENDCHAR
STARTCHAR slash
ENCODING 47
SWIDTH 378 0
DWIDTH 5 0
BBX 4 9 0 0
BITMAP
30
30
30
60
60
60
c0
c0
c0
ENDCHAR
STARTCHAR zero
ENCODING 48
SWIDTH 560 0
DWIDTH 7 0
BBX 6 9 0 0
BITMAP
78
cc
cc
cc
cc
cc
cc
cc
78
ENDCHAR
STARTCHAR one
ENCODING 49
SWIDTH 560 0
DWIDTH 7 0
BBX 6 9 0 0
BITMAP
30
f0
30
30
30
30
30
30
fc
ENDCHAR
STARTCHAR two
ENCODING 50
SWIDTH 560 0
DWIDTH 7 0
BBX 6 9 0 0
BITMAP
78
cc
cc
0c
18
60
c4
fc
fc
ENDCHAR
STARTCHAR three
ENCODING 51
SWIDTH 560 0
DWIDTH 7 0
BBX 6 9 0 0
BITMAP
78
cc
cc
0c
38
0c
cc
cc
78
ENDCHAR
STARTCHAR four
ENCODING 52
SWIDTH 560 0
DWIDTH 7 0
BBX 6 9 0 0
BITMAP
30
30
70
68
58
98
fc
18
3c
ENDCHAR
STARTCHAR five
ENCODING 53
SWIDTH 560 0
DWIDTH 7 0
BBX 6 9 0 0
BITMAP
fc
f8
80
f8
9c
0c
cc
cc
78
ENDCHAR
STARTCHAR six
ENCODING 54
SWIDTH 560 0
DWIDTH 7 0
BBX 6 9 0 0
BITMAP
78
cc
cc
c0
f8
cc
cc
cc
78
ENDCHAR
STARTCHAR seven
ENCODING 55
SWIDTH 560 0
DWIDTH 7 0
BBX 6 9 0 0
BITMAP
fc
fc
88
08
10
10
30
30
30
ENDCHAR
STARTCHAR eight
ENCODING 56
SWIDTH 560 0
DWIDTH 7 0
BBX 6 9 0 0
BITMAP
78
cc
cc
cc
78
cc
cc
cc
78
ENDCHAR
STARTCHAR nine
ENCODING 57
SWIDTH 560 0
DWIDTH 7 0
BBX 6 9 0 0
BITMAP
78
cc
cc
cc
7c
0c
cc
cc
78
ENDCHAR
STARTCHAR colon
ENCODING 58
SWIDTH 280 0
DWIDTH 3 0
BBX 2 6 0 0
BITMAP
c0
c0
00
00
c0
c0
ENDCHAR
STARTCHAR semicolon
ENCODING 59
SWIDTH 280 0
DWIDTH 3 0
BBX 2 8 0 -2
BITMAP
c0
c0
00
00
c0
c0
40
80
ENDCHAR
STARTCHAR less
ENCODING 60
SWIDTH 600 0
DWIDTH 7 0
BBX 6 5 0 1
BITMAP
0c
30
c0
30
0c
ENDCHAR
STARTCHAR equal
ENCODING 61
SWIDTH 600 0
DWIDTH 7 0
BBX 6 3 0 2
BITMAP
fc
00
fc
ENDCHAR
STARTCHAR greater
ENCODING 62
SWIDTH 600 0
DWIDTH 7 0
BBX 6 5 0 1
BITMAP
c0
30
0c
30
c0
ENDCHAR
STARTCHAR question
ENCODING 63
SWIDTH 456 0
DWIDTH 6 0
BBX 5 9 0 0
BITMAP
70
d8
58
30
60
70
00
60
60
ENDCHAR
STARTCHAR at
ENCODING 64
SWIDTH 833 0
DWIDTH 10 0
BBX 10 9 0 0
BITMAP
1f00
2080
4f40
9b40
b640
b680
bb00
4000
3f00
ENDCHAR
STARTCHAR A
ENCODING 65
SWIDTH 644 0
DWIDTH 8 0
BBX 9 9 -1 0
BITMAP
0800
1c00
1c00
2e00
2600
3e00
4700
4300
e780
ENDCHAR
STARTCHAR B
ENCODING 66
SWIDTH 683 0
DWIDTH 9 0
BBX 8 9 0 0
BITMAP
fe
63
63
66
7e
63
63
67
fe
ENDCHAR
STARTCHAR C
ENCODING 67
SWIDTH 689 0
DWIDTH 9 0
BBX 8 9 0 0
BITMAP
3e
63
e0
c0
c0
c0
e0
63
3e
ENDCHAR
STARTCHAR D
ENCODING 68
SWIDTH 777 0
DWIDTH 10 0
BBX 9 9 0 0
BITMAP
fe00
6300
6380
6180
6180
6180
6380
6300
fe00
ENDCHAR
STARTCHAR E
ENCODING 69
SWIDTH 629 0
DWIDTH 8 0
BBX 7 9 0 0
BITMAP
fe
62
60
64
7c
64
60
62
fe
ENDCHAR
STARTCHAR F
ENCODING 70
SWIDTH 593 0
DWIDTH 8 0
BBX 7 9 0 0
BITMAP
fe
62
60
64
7c
64
60
60
f0
ENDCHAR
STARTCHAR G
ENCODING 71
SWIDTH 726 0
DWIDTH 9 0
BBX 9 9 0 0
BITMAP
3e00
6300
e000
c000
c000
c780
e300
6300
3e00
ENDCHAR
STARTCHAR H
ENCODING 72
SWIDTH 807 0
DWIDTH 10 0
BBX 9 9 0 0
BITMAP
f780
6300
6300
6300
7f00
6300
6300
6300
f780
ENDCHAR
STARTCHAR I
ENCODING 73
SWIDTH 384 0
DWIDTH 5 0
BBX 4 9 0 0
BITMAP
f0
60
60
60
60
60
60
60
f0
ENDCHAR
STARTCHAR J
ENCODING 74
SWIDTH 386 0
DWIDTH 5 0
BBX 4 11 0 -2
BITMAP
f0
60
60
60
60
60
60
60
60
60
c0
ENDCHAR
STARTCHAR K
ENCODING 75
SWIDTH 707 0
DWIDTH 9 0
BBX 9 9 0 0
BITMAP
f700
6600
6400
6800
7c00
6c00
6600
6700
f380
ENDCHAR
STARTCHAR L
ENCODING 76
SWIDTH 585 0
DWIDTH 7 0
BBX 7 9 0 0
BITMAP
f0
60
60
60
60
60
62
66
fe
ENDCHAR
STARTCHAR M
ENCODING 77
SWIDTH 918 0
DWIDTH 12 0
BBX 11 9 0 0
BITMAP
f1e0
71c0
71c0
5ac0
5ac0
5ac0
4cc0
4cc0
ede0
ENDCHAR
STARTCHAR N
ENCODING 78
SWIDTH 739 0
DWIDTH 9 0
BBX 9 9 0 0
BITMAP
e380
7100
7100
5900
5d00
4d00
4700
4700
e300
ENDCHAR
STARTCHAR O
ENCODING 79
SWIDTH 768 0
DWIDTH 10 0
BBX 9 9 0 0
BITMAP
3e00
6300
e380
c180
c180
c180
e380
6300
3e00
ENDCHAR
STARTCHAR P
ENCODING 80
SWIDTH 650 0
DWIDTH 8 0
BBX 8 9 0 0
BITMAP
fe
63
63
63
7e
60
60
60
f0
ENDCHAR
STARTCHAR Q
ENCODING 81
SWIDTH 768 0
DWIDTH 10 0
BBX 9 11 0 -2
BITMAP
3e00
6300
e380
c180
c180
c180
e380
6300
3e00
0e00
0780
ENDCHAR
STARTCHAR R
ENCODING 82
SWIDTH 684 0
DWIDTH 9 0
BBX 9 9 0 0
BITMAP
fe00
6300
6300
6600
7e00
6600
6300
6300
f380
ENDCHAR
STARTCHAR S
ENCODING 83
SWIDTH 561 0
DWIDTH 7 0
BBX 6 9 0 0
BITMAP
78
cc
c0
f0
78
1c
0c
cc
78
ENDCHAR
STARTCHAR T
ENCODING 84
SWIDTH 624 0
DWIDTH 8 0
BBX 8 9 0 0
BITMAP
ff
99
18
18
18
18
18
18
3c
ENDCHAR
STARTCHAR U
ENCODING 85
SWIDTH 786 0
DWIDTH 10 0
BBX 9 9 0 0
BITMAP
f780
6300
6300
6300
6300
6300
6300
7700
3e00
ENDCHAR
STARTCHAR V
ENCODING 86
SWIDTH 645 0
DWIDTH 8 0
BBX 9 9 -1 0
BITMAP
f380
6100
7100
3200
3200
3a00
1c00
1c00
0800
ENDCHAR
STARTCHAR W
ENCODING 87
SWIDTH 933 0
DWIDTH 12 0
BBX 13 9 -1 0
BITMAP
f338
6310
6310
35a0
35a0
35a0
3de0
18c0
18c0
ENDCHAR
STARTCHAR X
ENCODING 88
SWIDTH 634 0
DWIDTH 8 0
BBX 7 9 0 0
BITMAP
f6
64
64
38
38
38
4c
4c
de
ENDCHAR
STARTCHAR Y
ENCODING 89
SWIDTH 617 0
DWIDTH 8 0
BBX 8 9 0 0
BITMAP
f7
62
62
34
34
18
18
18
3c
ENDCHAR
STARTCHAR Z
ENCODING 90
SWIDTH 614 0
DWIDTH 8 0
BBX 7 9 0 0
BITMAP
fe
8e
0c
18
38
30
60
e2
fe
ENDCHAR
STARTCHAR bracketleft
ENCODING 91
SWIDTH 335 0
DWIDTH 4 0
BBX 3 11 0 -2
BITMAP
e0
c0
c0
c0
c0
c0
c0
c0
c0
c0
e0
ENDCHAR
STARTCHAR backslash
ENCODING 92
SWIDTH 379 0
DWIDTH 5 0
BBX 4 9 0 0
BITMAP
c0
c0
c0
60
60
60
30
30
30
ENDCHAR
STARTCHAR bracketright
ENCODING 93
SWIDTH 335 0
DWIDTH 4 0
BBX 3 11 0 -2
BITMAP
e0
60
60
60
60
60
60
60
60
60
e0
ENDCHAR
STARTCHAR asciicircum
ENCODING 94
SWIDTH 600 0
DWIDTH 7 0
BBX 5 6 1 3
BITMAP
20
20
50
50
88
88
ENDCHAR
STARTCHAR underscore
ENCODING 95
SWIDTH 500 0
DWIDTH 6 0
BBX 6 1 0 -2
BITMAP
fc
ENDCHAR
STARTCHAR grave
ENCODING 96
SWIDTH 430 0
DWIDTH 5 0
BBX 3 2 0 7
BITMAP
c0
60
ENDCHAR
STARTCHAR a
ENCODING 97
SWIDTH 544 0
DWIDTH 7 0
BBX 6 6 1 0
BITMAP
70
d8
38
d8
d8
ec
ENDCHAR
STARTCHAR b
ENCODING 98
SWIDTH 605 0
DWIDTH 7 0
BBX 7 10 -1 0
BITMAP
60
e0
60
60
7c
6e
66
66
66
7c
ENDCHAR
STARTCHAR c
ENCODING 99
SWIDTH 494 0
DWIDTH 6 0
BBX 5 6 0 0
BITMAP
70
d8
c0
c0
e8
70
ENDCHAR
STARTCHAR d
ENCODING 100
SWIDTH 605 0
DWIDTH 8 0
BBX 7 10 0 0
BITMAP
0c
1c
0c
0c
7c
cc
cc
cc
ec
7e
ENDCHAR
STARTCHAR e
ENCODING 101
SWIDTH 519 0
DWIDTH 6 0
BBX 5 6 0 0
BITMAP
70
d8
f8
c0
e8
70
ENDCHAR
STARTCHAR f
ENCODING 102
SWIDTH 342 0
DWIDTH 4 0
BBX 5 10 0 0
BITMAP
30
58
60
60
f0
60
60
60
60
f0
ENDCHAR
STARTCHAR g
ENCODING 103
SWIDTH 533 0
DWIDTH 7 0
BBX 6 9 0 -3
BITMAP
7c
d8
d8
d8
60
78
9c
cc
78
ENDCHAR
STARTCHAR h
ENCODING 104
SWIDTH 631 0
DWIDTH 8 0
BBX 8 10 0 0
BITMAP
60
e0
60
60
6c
7e
66
66
66
f7
ENDCHAR
STARTCHAR i
ENCODING 105
SWIDTH 316 0
DWIDTH 4 0
BBX 4 9 0 0
BITMAP
60
60
00
e0
60
60
60
60
f0
ENDCHAR
STARTCHAR j
ENCODING 106
SWIDTH 316 0
DWIDTH 4 0
BBX 4 12 -1 -3
BITMAP
30
30
00
70
30
30
30
30
30
30
70
e0
ENDCHAR
STARTCHAR k
ENCODING 107
SWIDTH 582 0
DWIDTH 7 0
BBX 7 10 0 0
BITMAP
60
e0
60
60
6e
6c
78
78
6c
ee
ENDCHAR
STARTCHAR l
ENCODING 108
SWIDTH 309 0
DWIDTH 4 0
BBX 4 10 0 0
BITMAP
60
e0
60
60
60
60
60
60
60
f0
ENDCHAR
STARTCHAR m
ENCODING 109
SWIDTH 948 0
DWIDTH 12 0
BBX 12 6 0 0
BITMAP
fdc0
6ee0
6660
6660
6660
f770
ENDCHAR
STARTCHAR n
ENCODING 110
SWIDTH 638 0
DWIDTH 8 0
BBX 8 6 0 0
BITMAP
fc
6e
66
66
66
f7
ENDCHAR
STARTCHAR o
ENCODING 111
SWIDTH 585 0
DWIDTH 7 0
BBX 6 6 0 0
BITMAP
78
dc
cc
cc
ec
78
ENDCHAR
STARTCHAR p
ENCODING 112
SWIDTH 615 0
DWIDTH 8 0
BBX 7 9 0 -3
BITMAP
fc
6e
66
66
66
7c
60
60
f0
ENDCHAR
STARTCHAR q
ENCODING 113
SWIDTH 597 0
DWIDTH 7 0
BBX 7 9 0 -3
BITMAP
7c
cc
cc
cc
ec
7c
0c
0c
1e
ENDCHAR
STARTCHAR r
ENCODING 114
SWIDTH 440 0
DWIDTH 6 0
BBX 5 6 0 0
BITMAP
d8
78
60
60
60
f0
ENDCHAR
STARTCHAR s
ENCODING 115
SWIDTH 446 0
DWIDTH 6 0
BBX 5 6 0 0
BITMAP
78
c8
f0
78
98
f0
ENDCHAR
STARTCHAR t
ENCODING 116
SWIDTH 370 0
DWIDTH 4 0
BBX 5 8 -1 0
BITMAP
20
60
f8
60
60
60
60
38
ENDCHAR
STARTCHAR u
ENCODING 117
SWIDTH 629 0
DWIDTH 8 0
BBX 8 6 0 0
BITMAP
ee
66
66
66
76
3f
ENDCHAR
STARTCHAR v
ENCODING 118
SWIDTH 520 0
DWIDTH 6 0
BBX 7 6 -1 0
BITMAP
ee
64
74
38
38
10
ENDCHAR
STARTCHAR w
ENCODING 119
SWIDTH 774 0
DWIDTH 10 0
BBX 11 6 -1 0
BITMAP
e4e0
6640
7640
3b80
3b80
1100
ENDCHAR
STARTCHAR x
ENCODING 120
SWIDTH 522 0
DWIDTH 7 0
BBX 6 6 0 0
BITMAP
ec
68
70
38
58
dc
ENDCHAR
STARTCHAR y
ENCODING 121
SWIDTH 524 0
DWIDTH 6 0
BBX 7 9 -1 -3
BITMAP
ee
64
74
38
38
10
10
60
60
ENDCHAR
STARTCHAR z
ENCODING 122
SWIDTH 483 0
DWIDTH 6 0
BBX 5 6 0 0
BITMAP
f8
b8
30
60
e8
f8
ENDCHAR
STARTCHAR braceleft
ENCODING 123
SWIDTH 365 0
DWIDTH 4 0
BBX 4 11 -1 -2
BITMAP
30
60
60
60
60
c0
60
60
60
60
30
ENDCHAR
STARTCHAR bar
ENCODING 124
SWIDTH 284 0
DWIDTH 3 0
BBX 2 9 0 0
BITMAP
c0
c0
c0
c0
c0
c0
c0
c0
c0
ENDCHAR
STARTCHAR braceright
ENCODING 125
SWIDTH 365 0
DWIDTH 4 0
BBX 4 11 0 -2
BITMAP
c0
60
60
60
60
30
60
60
60
60
c0
ENDCHAR
STARTCHAR asciitilde
ENCODING 126
SWIDTH 600 0
DWIDTH 7 0
BBX 6 2 0 3
BITMAP
74
b8
ENDCHAR
STARTCHAR nobreakspace
ENCODING 160
SWIDTH 210 0
DWIDTH 3 0
BBX 0 0 0 0
BITMAP
ENDCHAR
STARTCHAR Aogonek
ENCODING 161
SWIDTH 644 0
DWIDTH 8 0
BBX 9 12 -1 -3
BITMAP
0800
1c00
1c00
2e00
2600
3e00
4700
4300
e780
0800
1000
1c00
ENDCHAR
STARTCHAR breve
ENCODING 162
SWIDTH 430 0
DWIDTH 5 0
BBX 4 2 0 7
BITMAP
90
60
ENDCHAR
STARTCHAR Lstroke
ENCODING 163
SWIDTH 591 0
DWIDTH 7 0
BBX 7 9 0 0
BITMAP
f0
60
68
70
60
e0
62
66
fe
ENDCHAR
STARTCHAR currency
ENCODING 164
SWIDTH 560 0
DWIDTH 7 0
BBX 6 7 0 1
BITMAP
cc
78
cc
84
cc
78
cc
ENDCHAR
STARTCHAR Lcaron
ENCODING 165
SWIDTH 585 0
DWIDTH 7 0
BBX 7 10 0 0
BITMAP
06
f6
62
64
60
60
60
62
66
fe
ENDCHAR
STARTCHAR Sacute
ENCODING 166
SWIDTH 561 0
DWIDTH 7 0
BBX 6 12 0 0
BITMAP
18
30
00
78
cc
c0
f0
78
1c
0c
cc
78
ENDCHAR
STARTCHAR section
ENCODING 167
SWIDTH 566 0
DWIDTH 7 0
BBX 6 11 0 -2
BITMAP
78
cc
e0
78
9c
e4
78
1c
0c
c8
70
ENDCHAR
STARTCHAR diaeresis
ENCODING 168
SWIDTH 430 0
DWIDTH 6 0
BBX 5 2 0 7
BITMAP
d8
d8
ENDCHAR
STARTCHAR Scaron
ENCODING 169
SWIDTH 561 0
DWIDTH 7 0
BBX 6 12 0 0
BITMAP
68
30
00
78
cc
c0
f0
78
1c
0c
cc
78
ENDCHAR
STARTCHAR Scedilla
ENCODING 170
SWIDTH 561 0
DWIDTH 7 0
BBX 6 12 0 -3
BITMAP
78
cc
c0
f0
78
1c
0c
cc
78
20
10
30
ENDCHAR
STARTCHAR Tcaron
ENCODING 171
SWIDTH 624 0
DWIDTH 8 0
BBX 8 12 0 0
BITMAP
34
18
00
ff
99
18
18
18
18
18
18
3c
ENDCHAR
STARTCHAR Zacute
ENCODING 172
SWIDTH 614 0
DWIDTH 8 0
BBX 7 12 0 0
BITMAP
0c
18
00
fe
8e
0c
18
38
30
60
e2
fe
ENDCHAR
STARTCHAR hyphen
ENCODING 173
SWIDTH 392 0
DWIDTH 5 0
BBX 3 1 1 3
BITMAP
e0
ENDCHAR
STARTCHAR Zcaron
ENCODING 174
SWIDTH 614 0
DWIDTH 8 0
BBX 7 12 0 0
BITMAP
34
18
00
fe
8e
0c
18
38
30
60
e2
fe
ENDCHAR
STARTCHAR Zabovedot
ENCODING 175
SWIDTH 614 0
DWIDTH 8 0
BBX 7 12 0 0
BITMAP
18
18
00
fe
8e
0c
18
38
30
60
e2
fe
ENDCHAR
STARTCHAR degree
ENCODING 176
SWIDTH 396 0
DWIDTH 5 0
BBX 4 4 0 5
BITMAP
60
90
90
60
ENDCHAR
STARTCHAR aogonek
ENCODING 177
SWIDTH 544 0
DWIDTH 7 0
BBX 6 9 1 -3
BITMAP
70
d8
38
d8
d8
ec
20
40
70
ENDCHAR
STARTCHAR ogonek
ENCODING 178
SWIDTH 430 0
DWIDTH 5 0
BBX 3 3 1 -3
BITMAP
40
80
e0
ENDCHAR
STARTCHAR lstroke
ENCODING 179
SWIDTH 321 0
DWIDTH 4 0
BBX 4 10 0 0
BITMAP
60
e0
60
60
70
e0
60
60
60
f0
ENDCHAR
STARTCHAR acute
ENCODING 180
SWIDTH 430 0
DWIDTH 5 0
BBX 3 2 0 7
BITMAP
60
c0
ENDCHAR
STARTCHAR lcaron
ENCODING 181
SWIDTH 480 0
DWIDTH 6 0
BBX 6 11 0 0
BITMAP
0c
6c
e4
68
60
60
60
60
60
60
f0
ENDCHAR
STARTCHAR sacute
ENCODING 182
SWIDTH 446 0
DWIDTH 6 0
BBX 5 9 0 0
BITMAP
18
30
00
78
c8
f0
78
98
f0
ENDCHAR
STARTCHAR caron
ENCODING 183
SWIDTH 430 0
DWIDTH 5 0
BBX 4 2 0 7
BITMAP
d0
60
ENDCHAR
STARTCHAR cedilla
ENCODING 184
SWIDTH 430 0
DWIDTH 5 0
BBX 2 3 1 -3
BITMAP
80
40
c0
ENDCHAR
STARTCHAR scaron
ENCODING 185
SWIDTH 446 0
DWIDTH 6 0
BBX 5 9 0 0
BITMAP
68
30
00
78
c8
f0
78
98
f0
ENDCHAR
STARTCHAR scedilla
ENCODING 186
SWIDTH 446 0
DWIDTH 6 0
BBX 5 9 0 -3
BITMAP
78
c8
f0
78
98
f0
20
10
30
ENDCHAR
STARTCHAR tcaron
ENCODING 187
SWIDTH 400 0
DWIDTH 5 0
BBX 6 11 -1 0
BITMAP
0c
0c
04
28
60
f8
60
60
60
60
38
ENDCHAR
STARTCHAR zacute
ENCODING 188
SWIDTH 483 0
DWIDTH 6 0
BBX 5 9 0 0
BITMAP
18
30
00
f8
b8
30
60
e8
f8
ENDCHAR
STARTCHAR doubleacute
ENCODING 189
SWIDTH 430 0
DWIDTH 5 0
BBX 4 2 0 7
BITMAP
50
a0
ENDCHAR
STARTCHAR zcaron
ENCODING 190
SWIDTH 483 0
DWIDTH 6 0
BBX 5 9 0 0
BITMAP
68
30
00
f8
b8
30
60
e8
f8
ENDCHAR
STARTCHAR zabovedot
ENCODING 191
SWIDTH 483 0
DWIDTH 6 0
BBX 5 9 0 0
BITMAP
30
30
00
f8
b8
30
60
e8
f8
ENDCHAR
STARTCHAR Racute
ENCODING 192
SWIDTH 684 0
DWIDTH 9 0
BBX 9 12 0 0
BITMAP
0c00
1800
0000
fe00
6300
6300
6600
7e00
6600
6300
6300
f380
ENDCHAR
STARTCHAR Aacute
ENCODING 193
SWIDTH 644 0
DWIDTH 8 0
BBX 9 10 -1 0
BITMAP
0c00
1800
0000
0800
1c00
1c00
2600
3e00
4300
e780
ENDCHAR
STARTCHAR Acircumflex
ENCODING 194
SWIDTH 644 0
DWIDTH 8 0
BBX 9 10 -1 0
BITMAP
1800
2c00
0000
0800
1c00
1c00
2600
3e00
4300
e780
ENDCHAR
STARTCHAR Abreve
ENCODING 195
SWIDTH 644 0
DWIDTH 8 0
BBX 9 12 -1 0
BITMAP
1200
0c00
0000
0800
1c00
1c00
2e00
2600
3e00
4700
4300
e780
ENDCHAR
STARTCHAR Adiaeresis
ENCODING 196
SWIDTH 644 0
DWIDTH 8 0
BBX 9 10 -1 0
BITMAP
3600
3600
0000
0800
1c00
1c00
2600
3e00
4300
e780
ENDCHAR
STARTCHAR Lacute
ENCODING 197
SWIDTH 585 0
DWIDTH 7 0
BBX 7 12 0 0
BITMAP
30
60
00
f0
60
60
60
60
60
62
66
fe
ENDCHAR
STARTCHAR Cacute
ENCODING 198
SWIDTH 689 0
DWIDTH 9 0
BBX 8 12 0 0
BITMAP
06
0c
00
3e
63
e0
c0
c0
c0
e0
63
3e
ENDCHAR
STARTCHAR Ccedilla
ENCODING 199
SWIDTH 689 0
DWIDTH 9 0
BBX 8 12 0 -3
BITMAP
3e
63
e0
c0
c0
c0
e0
63
3e
10
08
18
ENDCHAR
STARTCHAR Ccaron
ENCODING 200
SWIDTH 689 0
DWIDTH 9 0
BBX 8 12 0 0
BITMAP
1a
0c
00
3e
63
e0
c0
c0
c0
e0
63
3e
ENDCHAR
STARTCHAR Eacute
ENCODING 201
SWIDTH 629 0
DWIDTH 8 0
BBX 7 10 0 0
BITMAP
18
30
00
fe
62
60
7c
60
62
fe
ENDCHAR
STARTCHAR Eogonek
ENCODING 202
SWIDTH 629 0
DWIDTH 8 0
BBX 7 12 0 -3
BITMAP
fe
62
60
64
7c
64
60
62
fe
10
20
38
ENDCHAR
STARTCHAR Ediaeresis
ENCODING 203
SWIDTH 629 0
DWIDTH 8 0
BBX 7 10 0 0
BITMAP
6c
6c
00
fe
62
60
7c
60
62
fe
ENDCHAR
STARTCHAR Ecaron
ENCODING 204
SWIDTH 629 0
DWIDTH 8 0
BBX 7 12 0 0
BITMAP
34
18
00
fe
62
60
64
7c
64
60
62
fe
ENDCHAR
STARTCHAR Iacute
ENCODING 205
SWIDTH 384 0
DWIDTH 5 0
BBX 4 10 0 0
BITMAP
60
c0
00
f0
60
60
60
60
60
f0
ENDCHAR
STARTCHAR Icircumflex
ENCODING 206
SWIDTH 384 0
DWIDTH 5 0
BBX 4 10 0 0
BITMAP
60
b0
00
f0
60
60
60
60
60
f0
ENDCHAR
STARTCHAR Dcaron
ENCODING 207
SWIDTH 777 0
DWIDTH 10 0
BBX 9 12 0 0
BITMAP
3400
1800
0000
fe00
6300
6380
6180
6180
6180
6380
6300
fe00
ENDCHAR
STARTCHAR Dstroke
ENCODING 208
SWIDTH 783 0
DWIDTH 10 0
BBX 9 9 0 0
BITMAP
fe00
6300
6380
6180
f180
6180
6380
6300
fe00
ENDCHAR
STARTCHAR Nacute
ENCODING 209
SWIDTH 739 0
DWIDTH 9 0
BBX 9 12 0 0
BITMAP
0600
0c00
0000
e380
7100
7100
5900
5d00
4d00
4700
4700
e300
ENDCHAR
STARTCHAR Ncaron
ENCODING 210
SWIDTH 739 0
DWIDTH 9 0
BBX 9 12 0 0
BITMAP
1a00
0c00
0000
e380
7100
7100
5900
5d00
4d00
4700
4700
e300
ENDCHAR
STARTCHAR Oacute
ENCODING 211
SWIDTH 768 0
DWIDTH 10 0
BBX 9 10 0 0
BITMAP
0c00
1800
0000
3e00
6300
c180
c180
c180
6300
3e00
ENDCHAR
STARTCHAR Ocircumflex
ENCODING 212
SWIDTH 768 0
DWIDTH 10 0
BBX 9 10 0 0
BITMAP
1800
2c00
0000
3e00
6300
c180
c180
c180
6300
3e00
ENDCHAR
STARTCHAR Odoubleacute
ENCODING 213
SWIDTH 768 0
DWIDTH 10 0
BBX 9 12 0 0
BITMAP
0a00
1400
0000
3e00
6300
e380
c180
c180
c180
e380
6300
3e00
ENDCHAR
STARTCHAR Odiaeresis
ENCODING 214
SWIDTH 768 0
DWIDTH 10 0
BBX 9 10 0 0
BITMAP
3600
3600
0000
3e00
6300
c180
c180
c180
6300
3e00
ENDCHAR
STARTCHAR multiply
ENCODING 215
SWIDTH 600 0
DWIDTH 7 0
BBX 6 5 0 1
BITMAP
cc
78
30
78
cc
ENDCHAR
STARTCHAR Rcaron
ENCODING 216
SWIDTH 684 0
DWIDTH 9 0
BBX 9 12 0 0
BITMAP
3400
1800
0000
fe00
6300
6300
6600
7e00
6600
6300
6300
f380
ENDCHAR
STARTCHAR Uring
ENCODING 217
SWIDTH 786 0
DWIDTH 10 0
BBX 9 13 0 0
BITMAP
0c00
1200
0c00
0000
f780
6300
6300
6300
6300
6300
6300
7700
3e00
ENDCHAR
STARTCHAR Uacute
ENCODING 218
SWIDTH 786 0
DWIDTH 10 0
BBX 9 10 0 0
BITMAP
0c00
1800
0000
f780
6300
6300
6300
6300
7700
3e00
ENDCHAR
STARTCHAR Udoubleacute
ENCODING 219
SWIDTH 786 0
DWIDTH 10 0
BBX 9 12 0 0
BITMAP
0a00
1400
0000
f780
6300
6300
6300
6300
6300
6300
7700
3e00
ENDCHAR
STARTCHAR Udiaeresis
ENCODING 220
SWIDTH 786 0
DWIDTH 10 0
BBX 9 10 0 0
BITMAP
3600
3600
0000
f780
6300
6300
6300
6300
7700
3e00
ENDCHAR
STARTCHAR Yacute
ENCODING 221
SWIDTH 617 0
DWIDTH 8 0
BBX 8 10 0 0
BITMAP
0c
18
00
f7
62
34
34
18
18
3c
ENDCHAR
STARTCHAR Tcedilla
ENCODING 222
SWIDTH 624 0
DWIDTH 8 0
BBX 8 12 0 -3
BITMAP
ff
99
18
18
18
18
18
18
3c
10
08
18
ENDCHAR
STARTCHAR ssharp
ENCODING 223
SWIDTH 662 0
DWIDTH 8 0
BBX 8 10 0 0
BITMAP
3c
66
66
64
6c
6e
67
63
6b
ee
ENDCHAR
STARTCHAR racute
ENCODING 224
SWIDTH 440 0
DWIDTH 6 0
BBX 5 9 0 0
BITMAP
18
30
00
d8
78
60
60
60
f0
ENDCHAR
STARTCHAR aacute
ENCODING 225
SWIDTH 544 0
DWIDTH 7 0
BBX 6 9 0 0
BITMAP
30
60
00
70
d8
38
d8
d8
ec
ENDCHAR
STARTCHAR acircumflex
ENCODING 226
SWIDTH 544 0
DWIDTH 7 0
BBX 6 9 0 0
BITMAP
60
b0
00
70
d8
38
d8
d8
ec
ENDCHAR
STARTCHAR abreve
ENCODING 227
SWIDTH 544 0
DWIDTH 7 0
BBX 6 9 1 0
BITMAP
48
30
00
70
d8
38
d8
d8
ec
ENDCHAR
STARTCHAR adiaeresis
ENCODING 228
SWIDTH 544 0
DWIDTH 7 0
BBX 6 9 0 0
BITMAP
d8
d8
00
70
d8
38
d8
d8
ec
ENDCHAR
STARTCHAR lacute
ENCODING 229
SWIDTH 309 0
DWIDTH 4 0
BBX 4 13 0 0
BITMAP
30
60
00
60
e0
60
60
60
60
60
60
60
f0
ENDCHAR
STARTCHAR cacute
ENCODING 230
SWIDTH 494 0
DWIDTH 6 0
BBX 5 9 0 0
BITMAP
18
30
00
70
d8
c0
c0
e8
70
ENDCHAR
STARTCHAR ccedilla
ENCODING 231
SWIDTH 494 0
DWIDTH 6 0
BBX 5 9 0 -3
BITMAP
70
d8
c0
c0
e8
70
40
20
60
ENDCHAR
STARTCHAR ccaron
ENCODING 232
SWIDTH 494 0
DWIDTH 6 0
BBX 5 9 0 0
BITMAP
68
30
00
70
d8
c0
c0
e8
70
ENDCHAR
STARTCHAR eacute
ENCODING 233
SWIDTH 519 0
DWIDTH 6 0
BBX 5 9 0 0
BITMAP
30
60
00
70
d8
f8
c0
e8
70
ENDCHAR
STARTCHAR eogonek
ENCODING 234
SWIDTH 519 0
DWIDTH 6 0
BBX 5 9 0 -3
BITMAP
70
d8
f8
c0
e8
70
20
40
70
ENDCHAR
STARTCHAR ediaeresis
ENCODING 235
SWIDTH 519 0
DWIDTH 6 0
BBX 5 9 0 0
BITMAP
d8
d8
00
70
d8
f8
c0
e8
70
ENDCHAR
STARTCHAR ecaron
ENCODING 236
SWIDTH 519 0
DWIDTH 6 0
BBX 5 9 0 0
BITMAP
68
30
00
70
d8
f8
c0
e8
70
ENDCHAR
STARTCHAR iacute
ENCODING 237
SWIDTH 316 0
DWIDTH 4 0
BBX 4 9 0 0
BITMAP
60
c0
00
e0
60
60
60
60
f0
ENDCHAR
STARTCHAR icircumflex
ENCODING 238
SWIDTH 316 0
DWIDTH 4 0
BBX 4 9 0 0
BITMAP
60
b0
00
e0
60
60
60
60
f0
ENDCHAR
STARTCHAR dcaron
ENCODING 239
SWIDTH 800 0
DWIDTH 10 0
BBX 9 11 0 0
BITMAP
0180
0d80
1c80
0d00
0c00
7c00
cc00
cc00
cc00
ec00
7e00
ENDCHAR
STARTCHAR dstroke
ENCODING 240
SWIDTH 720 0
DWIDTH 9 0
BBX 8 10 0 0
BITMAP
0c
0c
3f
0c
7c
cc
cc
cc
ec
7e
ENDCHAR
STARTCHAR nacute
ENCODING 241
SWIDTH 638 0
DWIDTH 8 0
BBX 8 9 0 0
BITMAP
0c
18
00
fc
6e
66
66
66
f7
ENDCHAR
STARTCHAR ncaron
ENCODING 242
SWIDTH 638 0
DWIDTH 8 0
BBX 8 9 0 0
BITMAP
34
18
00
fc
6e
66
66
66
f7
ENDCHAR
STARTCHAR oacute
ENCODING 243
SWIDTH 585 0
DWIDTH 7 0
BBX 6 9 0 0
BITMAP
30
60
00
78
dc
cc
cc
ec
78
ENDCHAR
STARTCHAR ocircumflex
ENCODING 244
SWIDTH 585 0
DWIDTH 7 0
BBX 6 9 0 0
BITMAP
30
58
00
78
dc
cc
cc
ec
78
ENDCHAR
STARTCHAR odoubleacute
ENCODING 245
SWIDTH 585 0
DWIDTH 7 0
BBX 6 9 0 0
BITMAP
28
50
00
78
dc
cc
cc
ec
78
ENDCHAR
STARTCHAR odiaeresis
ENCODING 246
SWIDTH 585 0
DWIDTH 7 0
BBX 6 9 0 0
BITMAP
d8
d8
00
78
dc
cc
cc
ec
78
ENDCHAR
STARTCHAR division
ENCODING 247
SWIDTH 600 0
DWIDTH 7 0
BBX 6 7 0 0
BITMAP
30
30
00
fc
00
30
30
ENDCHAR
STARTCHAR rcaron
ENCODING 248
SWIDTH 440 0
DWIDTH 6 0
BBX 5 9 0 0
BITMAP
68
30
00
d8
78
60
60
60
f0
ENDCHAR
STARTCHAR uring
ENCODING 249
SWIDTH 629 0
DWIDTH 8 0
BBX 8 10 0 0
BITMAP
18
24
18
00
ee
66
66
66
76
3f
ENDCHAR
STARTCHAR uacute
ENCODING 250
SWIDTH 629 0
DWIDTH 8 0
BBX 8 9 0 0
BITMAP
18
30
00
ee
66
66
66
76
3f
ENDCHAR
STARTCHAR udoubleacute
ENCODING 251
SWIDTH 629 0
DWIDTH 8 0
BBX 8 9 0 0
BITMAP
14
28
00
ee
66
66
66
76
3f
ENDCHAR
STARTCHAR udiaeresis
ENCODING 252
SWIDTH 629 0
DWIDTH 8 0
BBX 8 9 0 0
BITMAP
6c
6c
00
ee
66
66
66
76
3f
ENDCHAR
STARTCHAR yacute
ENCODING 253
SWIDTH 524 0
DWIDTH 6 0
BBX 7 12 -1 -3
BITMAP
18
30
00
ee
64
74
38
38
10
10
60
60
ENDCHAR
STARTCHAR tcedilla
ENCODING 254
SWIDTH 370 0
DWIDTH 4 0
BBX 5 11 -1 -3
BITMAP
20
60
f8
60
60
60
60
38
20
10
30
ENDCHAR
STARTCHAR abovedot
ENCODING 255
SWIDTH 430 0
DWIDTH 5 0
BBX 2 2 1 7
BITMAP
c0
c0
ENDCHAR
ENDFONT
